<?xml version="1.0" encoding="UTF-8"?>
<svg id="Layer_1" data-name="Layer 1" xmlns="http://www.w3.org/2000/svg" viewBox="0 0 353.02 353.02">
  <defs>
    <style>
      .cls-1 {
        stroke-width: 1.06px;
      }

      .cls-1, .cls-2, .cls-3, .cls-4, .cls-5, .cls-6, .cls-7 {
        fill: #44bb8f;
      }

      .cls-1, .cls-2, .cls-3, .cls-5, .cls-7 {
        stroke: #44bb8f;
      }

      .cls-1, .cls-3, .cls-5, .cls-7 {
        stroke-miterlimit: 10;
      }

      .cls-2 {
        stroke-linecap: round;
        stroke-linejoin: round;
        stroke-width: 1px;
      }

      .cls-8, .cls-9 {
        fill: #fff;
      }

      .cls-3 {
        stroke-width: .98px;
      }

      .cls-9, .cls-4 {
        fill-rule: evenodd;
      }

      .cls-5 {
        stroke-width: 1.03px;
      }

      .cls-7 {
        stroke-width: 1.03px;
      }
    </style>
  </defs>
  <circle class="cls-6" cx="176.51" cy="176.51" r="176.51"/>
  <g>
    <path class="cls-6" d="M71.22,178.95l3.83-7.41c.04-.08,4.13-8.06,8.33-19.77,3.89-10.86,5.48-19.14,6.13-24.17,1.42-10.98,.89-17.49-1.67-20.48-1.13-1.33-4.56-2.67-9.67-2.67-.46,0-.93,.01-1.39,.03-3.34,.16-11.09,2.41-15.19,3.79l-6.34,2.14-.38-6.68c-.04-.65-.26-6.46,3.33-11.12,1.87-2.43,4.67-4.61,6.7-6.02,.16-1.72,.59-3.82,1.65-5.68,.87-1.53,1.9-2.64,2.9-3.45,.32-6.09,3.49-17.82,21.79-25.08,5.23-2.07,10.86-3.12,16.75-3.12,9.88,0,19.54,3.03,25.82,8.11,9.64,7.79,15.54,16.51,19.7,29.16,3.53,10.72,4.94,18.09,5.97,23.46,.27,1.4,.5,2.64,.75,3.74,.29,1.34,.65,3.79,1.14,7.2,1.18,8.13,3.16,21.74,6.07,31.86,3.19,11.07,6.58,19.53,6.62,19.61l2.84,7.04-105.66-.5Z"/>
    <path class="cls-8" d="M59.96,103.43s-.25-4.43,2.28-7.72,7.72-6.33,7.72-6.33c0,0-.34-3.58,1.01-5.95,1.52-2.66,3.67-3.04,3.67-3.04,0,0-2.91-14.8,18.47-23.28,13.88-5.5,29.66-2.11,37.48,4.21,9.48,7.66,14.52,16.03,18.06,26.78,4.39,13.34,5.44,21.51,6.58,26.69,.91,4.15,3.12,24.89,7.3,39.38,3.31,11.49,6.79,20.11,6.79,20.11l-89.73-.42s4.22-8.17,8.6-20.39c4-11.18,5.68-19.8,6.38-25.24,1.61-12.47,.88-20.08-2.84-24.44-2.91-3.42-9.11-4.72-15.18-4.43-5.31,.25-16.57,4.05-16.57,4.05Zm38.19-23.54c1.12,3.03,5.74,2.93,7.97,1.35,2.71-1.91,3.32-4.06,2.42-6.39-1.03-2.66-4.38-2.78-7.28-1.58-2.71,1.12-4.11,3.91-3.11,6.62Z"/>
    <g>
      <path class="cls-6" d="M60.27,104.64c-.17,0-.34-.38-.44-.54-.14-.24-.07-.54,.16-.69,.18-.11,4.47-2.98,9.73-4.3,6.23-1.57,9.5-1.79,12.47-1.81,1.69-.01,1.7,.55,.01,.58-.84,.02-5.93,.64-12.2,2.48-5.07,1.49-9.44,3.86-9.49,3.89-.08,.05-.17,.37-.25,.37Z"/>
      <path class="cls-6" d="M85.12,87.5c1.09-.58,2.16-1.68,2.37-2.49,.04-.15,0-.19-.02-.21-1.08-1.08-4.55-3.69-7.83-4.41-3.23-.71-5.88,.24-5.91,.25-.26,.1-.55-.04-.64-.3-.09-.26,.04-1.35,.3-1.44,.12-.04,2.94-.76,6.47,.02,3.88,.85,7.94,4.43,8.71,5.21,.3,.3,.67,.6,.26,1.11-1.04,1.3-2.42,2.59-3.84,2.99s-1.69,.26,.13-.72Z"/>
      <path class="cls-6" d="M69.42,89.59c-.22,0-.41-.14-.48-.36-.08-.26,.07-.94,.34-1.02,.09-.03,1.44-.64,4.36-.75,2.52-.09,4.86,.63,4.8,.9-.06,.27-2.14,.15-4.8,.35-2.8,.2-4.06,.86-4.08,.87-.05,.01-.1,.02-.14,.02Z"/>
    </g>
  </g>
  <g>
    <path class="cls-4" d="M172.9,238.63c-.27-.46-6.71-11.52-13.2-24.67-8.63-17.47-12.97-29.63-13.24-37.08-4.36-10.72-1.85-22.37,.37-32.69,1.19-5.53,2.32-10.76,2.06-14.69-1.09-16.91,5.53-31.9,10.36-42.85,2.09-4.74,3.9-8.83,4.64-11.97,3.14-13.32,18.5-33.62,31.95-38.33,4.48-1.57,10-2.39,15.98-2.39,11.18,0,22.86,2.85,32.03,7.82l4.18,2.26c4.54-.39,8.75-.58,12.68-.58,21.96,0,35.94,6.15,42.74,18.81l.7,1.3,.29,.12-.17,.1,4.81,8.96s-13.13-3.6-13.38-3.67c-6.23,3.8-12.43,5.34-17.92,6.7-2.91,.72-5.65,1.4-8.27,2.36-5.93,2.17-9.39,3.56-13.26,6.76l2.22,2.31c-2.64,4.15-2.44,5.25-2.31,5.49,.77,1.47,4.43,3.85,8.68,6.6,3.38,2.19,5.89,7.71,10.78,11.3,11.71,8.6,13.86,19.57,22.61,27.93,9.4,8.98,12.01,29.21,12.01,29.21l-134.8,75.22-2.53-4.34Z"/>
    <path class="cls-9" d="M246.38,87.51c7.97-8.9,12.12-10.77,21.37-14.15,8.16-2.98,16.78-3.37,25.46-8.73-3.98-1.13-14.43-3.9-29.98-.99s-27.01,7.15-27.1,7.2l-2.01-.38c.08-.06,12.63-6.19,28.09-8.99,10.66-1.93,20.32-1.32,24.26-.58,3.55,.67,7.55,2.03,12.49,3.81-9.52-17.72-35.77-18.43-67.23-13.46,2.97-1.82,5.16-3.77,9.69-4.96-14.11-7.64-32.84-8.96-43.89-5.09-11.76,4.11-25.6,18.26-28.67,34.68-2.17,11.62-16.34,30.55-14.87,53.32,.81,12.49-9.23,31.58-2.43,46.64-.43,15.36,25.75,60.24,25.75,60.24l114.26-64.93c-3.31-3.33,5.96-13.36-1.33-27.93-5.32-10.64-7.98-19.29-19.95-29.26-19.36-16.13-24.36-16.52-16.13-29.45-2.35,1.37-4.7,2.35-7.78,3.02Zm-35.63-22.2c-.88-.99-1.73-.33-3.63,.02,3.82-7.41,12.32-10.49,17.55-.84-4.19,4.54-10.29,6.93-13.92,.81Z"/>
  </g>
  <path class="cls-8" d="M144.86,136.63s30.89,6.78,33.9,23.36c1.2,6.58,39.83,59.35,39.83,59.35l-62.96,21.73-33.38-40.87,14.61-46.96,7.99-16.6Z"/>
  <g>
    <path class="cls-4" d="M76.37,290.32c-11.29,0-20.52-4.91-29.03-15.44-12.96-16.03-9.32-28.89-6.41-39.22,3.12-11.04-.15-19.69-3.04-27.33-1.31-3.45-2.54-6.72-3.13-9.99-2.65-14.58,5.23-28.51,5.31-28.65,5.43-10.18,15.44-16.7,32.47-21.14,2.8-.73,5.61-1.53,8.33-2.31,9.37-2.67,18.22-5.2,27.13-5.2,4.29,0,8.22,.59,12.01,1.79,15.97,5.08,20.37,9.11,24.84,14.26,7.93,9.12,23.39,18.16,23.31,31.97-.09,14.12,1.11,35.56-2.46,49.83-3.13,12.5-26.79,31.57-47.82,39.69l-3.51,1.36c-14.32,5.56-26.69,10.36-37.99,10.36Z"/>
    <path class="cls-6" d="M151.34,211.16c-1.89,0-3.75-.51-5.51-1.51l-1.69-.96-.59-1.86c-.3-.95-2.88-9.47-.29-17.02,1.23-3.6,3.3-9.64,8.93-9.64,.44,0,.87,.04,1.31,.12,.04-.96-.14-2.16-.84-3.37-.93-1.61-3.23-3.06-5.4-3.93,.81,1.8,1.89,3.57,2.75,4.29l-5.53,8.23c-.52-.28-12.61-6.95-13.7-20.51-.12-.92-.44-4.03,.27-7.66,1.17-5.99,4.47-10.45,9.55-12.89,2.39-1.15,5.03-1.74,7.84-1.74,9.78,0,20.54,7.32,25.58,17.4,6.26,12.53,4.94,26.34-3.47,36.05-.83,.97-1.64,1.92-2.42,2.84-5.53,6.53-10.31,12.17-16.76,12.17h0Z"/>
    <path class="cls-9" d="M77.46,284.19c-9.45,0-16.98-3.62-24.41-11.75-9.89-10.81-8.14-27.41-5.54-35.52,3.21-10.04-.66-20.08-4.07-28.95-1.49-3.88-2.9-7.53-3.45-10.58-2.29-12.58,4.62-24.95,4.69-25.07,4.75-8.9,13.73-14.6,29.2-18.64,2.84-.74,5.65-1.54,8.45-2.34,9-2.57,17.5-4.99,25.67-4.99,3.74,0,7.14,.5,10.4,1.54,14.65,4.66,18.54,8.2,22.45,12.69,7.01,8.06,23.69,10.54,23.62,22.96-.08,13.51-.88,41.04-4.31,54.75-2.82,11.29-25.29,28.06-44.2,35.36-15.96,6.17-28.07,10.53-38.51,10.53Z"/>
    <path class="cls-6" d="M151.45,206.73c-1.22,0-2.59-.38-3.6-1.01s1.9,.27,4.37-.85c3.65-1.66,1.74-6.04,1.68-11.22-.03-2.81,1.13-7.34-.02-8.63-.81-.91-2.76-1.22-1.63-1.22,.87,0,1.76,.35,2.79,1.1,.05,.03,.09,.06,.11,.06,.12,0,.52-.24,.94-.96,1.13-1.96,.93-5.28-.82-8.3-2.23-3.86-6.91-5.68-10.05-6.4s-2.54,3.82-1.19,6.74l.22,3.03c-.43-.23-7.98-3.53-9.92-14.67-.84-4.81-1.26-10.89,8.24-15.37,1.84-.87,3.87-1.33,6.05-1.33,8.19,0,17.25,6.24,21.55,14.85,5.48,10.96,5.31,22.93-1.92,31.37-3.77,4.4-9.42,12.77-16.8,12.81h0Z"/>
    <path class="cls-8" d="M135.49,165.01s-1.84-11.55,7.2-15.9c9.04-4.35,22.09,3.01,27.45,13.72,5.36,10.71,4.69,22.59-2.85,31.3-7.53,8.7-12.72,16.23-18.91,12.72,0,0-2.51-7.87-.33-14.23,2.18-6.36,3.68-7.53,6.44-5.52,2.76,2.01,6.44-5.52,2.76-11.88-3.68-6.36-16.07-9.54-16.23-5.86-.17,3.68,3.01,10.38,5.86,12.72,0,0-10.54-5.69-11.38-17.07Z"/>
    <g>
      <path class="cls-6" d="M72.39,289.2c-13.58,0-28.09-17.82-31.86-25.25-1.05-2.07-1.94-4.44-.59-6.28,.76-1.03,1.62-1.86,2.36-2.45l-.05-.46c-.71-6-1.45-13.77-.96-16.73,.38-2.3,2.93-8.29,5.7-14.34-.82-.39-1.45-1.11-1.73-2.03l-5.84-19.41c-2.88-9.57-1.81-13.22,1.66-20.87,.26-.52,4.4-11.89,15.39-10.55,.64,.08,1.31,.04,1.99,.13,1.2,.16,2.26,.24,3.26,.24,3.51,0,5.69-.98,9-2.47,2.01-.9,4.19-2.56,7.23-3.57,2.97-.99,7.36-1.92,11.06-1.92,9.83,0,17.86,4.07,24.29,9.62,6.31,5.45,7.45,12.5,5.05,26.69-.48,2.86-4.38,13.2-6.25,15.63-2.68,3.49-8.7,9.95-10.82,7.94-3.1-2.94,9.41,47.39-22.87,64.82-1.81,.98-3.9,1.27-6.02,1.27h0Z"/>
      <path class="cls-8" d="M72.2,285.79c-10.14,0-22.5-12.3-27.67-20.62-1.75-2.82-1.89-3.99-1.79-4.18,1.23-1.67,2.93-2.64,2.94-2.65,.24-.15,21.82-13.74,40.96-16.19v-1.06s-.51-.05-1.42-.05c-3.86,0-18.03,.91-39.63,12.53-.48-4.15-1.33-12.35-.89-14.98,.51-3.03,6.46-15.72,8.27-19.53,.14-.28,.12-.61-.05-.87-.17-.27-.47-.43-.78-.43-.21,0-.41,.07-.58,.21l-3.05,2.48c-.79-2.63-3.48-11.57-5.78-19.19-2.69-8.92-3.01-12.53,.06-19.27,.03-.07,4.37-8.52,12.25-8.52,.5,0,1.02,.03,1.53,.1,1.35,.18,2.57,.27,3.72,.27,4.25,0,6.97-1.22,10.41-2.77,1.94-.87,4.13-1.86,7-2.82,2.62-.87,5.77-1.34,9.11-1.34,8.86,0,17.83,3.16,23.41,8.24,8.55,7.79,7.46,15.67,4.97,25.96-2.96,12.24-7.61,16.46-10.4,18.99-1.12,1.02-1.93,1.75-2.23,2.66-.46,1.39,.11,3.96,.83,7.21,.82,3.67,1.83,8.25,1.33,11.77-1,7-13.06,36.47-27.72,43.05-1.48,.67-3.1,1-4.8,1h0Zm-13.41-61.93l.77-1.29c.58-.98,1.12-2.59,1.39-3.45,.13-.44-.08-.91-.51-1.1-2.66-1.19-3.05-3.47-3.11-4.17v-.09s-1.07,0-1.07,0v.13c.05,3.49,1.42,5.21,1.9,5.7l.62,4.27Zm8.09-4.98c.06,.46,.47,.81,.94,.81,.13,0,.26-.03,.38-.08,5.21-2.36,4.18-6.77,3.74-8.06-.13-.38-.49-.63-.89-.63-.08,0-.15,0-.22,.03-5.06,1.24-7.51,5.29-7.62,5.46l-.81,1.36,4.1-1.66,.38,2.77Zm13.36-22.4c-.59,0-.86,.38-.86,.76,0,1.49,5.53,5.56,11.4,5.64h.18c5.47,0,8.31-3.4,8.55-5.13,.1-.73-.26-1.11-.63-1.21-.09-.03-.18-.04-.28-.04-.54,0-1.03,.4-1.7,.96-1.14,.95-2.88,2.38-5.75,2.38-.16,0-.33,0-.5-.01-4.95-.27-9.84-3.2-9.89-3.23l-.08-.05-.1-.02c-.14-.03-.25-.04-.36-.04Zm-23.44-5.27c-1.46,0-2.82,.86-3.65,2.31-.9,1.57-.93,3.44-.08,4.88,.99,1.69,2.15,2.48,3.63,2.48,.85,0,1.74-.25,2.57-.52,.78-.26,1.46-.57,2.11-.87,.77-.36,1.5-.69,2.23-.84,.61-.12,1.09-.55,1.28-1.14,.19-.59,.04-1.23-.39-1.68-.19-.2-.41-.4-.66-.61-.29-.23-.6-.51-.94-.81-1.53-1.35-3.61-3.2-6.09-3.2Zm29.92-8.42c-4.23,.12-4.54,3.78-4.77,6.45-.05,.64-.11,1.25-.2,1.79-.1,.6,.03,1.2,.39,1.69,.35,.49,.88,.81,1.48,.9,.9,.14,1.78,.21,2.63,.21,1.51,0,2.89-.22,4.1-.66,2.74-.99,4.45-2.73,5.23-3.68,.56-.69,.55-1.68-.04-2.36-1.39-1.62-4.36-4.35-8.55-4.35h-.26Z"/>
    </g>
  </g>
  <g>
    <g>
      <path class="cls-6" d="M279.16,268.14c-12.08,0-25.28-3.54-40.32-10.81-16.99-8.22-28.55-16.83-31.71-23.64-2.59-5.57-4.01-8.04-4.02-8.06l-.1-.17-.09-.18c-.11-.22-2.59-5.4-3.86-8.26-1.12-2.52-2.24-4.74-3.23-6.71-2.49-4.95-4.45-8.86-4.45-13.36s1.45-8.3,2.54-10.54c-1.66-7.48-5.94-33.22,8.01-53.98,13-19.36,34.4-30.46,58.69-30.46,5.38,0,10.74,.58,15.91,1.71,18.75,4.12,32.31,13.99,40.3,29.36,8.42,16.2,7.13,32.46,6.35,42.17-.2,2.46-.37,4.59-.29,5.79,.05,.74,.44,2.52,.82,4.25,1.19,5.4,2.98,13.57,1.79,21.1-2.21,14-6.94,29.95-12.35,41.6-6.61,14.25-13.97,17.87-25.25,19.55-2.85,.42-5.79,.64-8.76,.64Z"/>
      <path class="cls-8" d="M275.44,108.66c17.48,3.84,29.71,12.97,36.87,26.73,10.02,19.27,5.06,39.01,5.5,45.93,.25,3.86,4.13,14.92,2.67,24.23-2.05,12.96-7.08,28.71-12.44,40.25-6,12.95-12.58,15.26-21.87,16.65-15.34,2.29-29.96-2.4-45.11-9.72-19.29-9.32-27.41-17.11-29.3-21.19-2.76-5.93-4.24-8.48-4.24-8.48,0,0-2.54-5.3-3.8-8.12-3.78-8.49-7.23-13.23-7.23-17.99,0-5.47,2.86-9.82,2.86-9.82,0,0-8.21-29.48,6.82-51.85,16.31-24.28,45.19-31.9,69.28-26.61Z"/>
      <g>
        <path class="cls-6" d="M300.27,173.34c-2.96,.34-5.07,.68-4.76,3.22,.36,3,1.75,4.76,6.13,4.44,4.11-.29,4.82-1.4,4.93-4.44,.12-3.6-3.18-3.58-6.29-3.22Z"/>
        <path class="cls-6" d="M251.85,177.27c-3.1,.39-5.55,.75-5.12,3.27,.6,3.53,1.35,5.29,6.37,4.8,4.93-.48,5.05-2.28,5.17-5.41,.14-3.63-3.31-3.06-6.41-2.67Z"/>
        <path class="cls-3" d="M293.01,213.17c2.51,.29,3.77-2.12,1.22-3.21-2.55-1.09-1.49,1.92-3.71,2.09-2.22,.17-.27-5.38-4.49-4.64-4.22,.75-8.47,2.41-11.95,5.07-3.47,2.67,4.71,.85,7.5,1.79,3.02,1.02,5.32-.58,7-.02,1.68,.57,4.43-1.09,4.43-1.09Z"/>
        <path class="cls-3" d="M244.19,186.25c.05-.17-7.48-.19-7.42-.81,.09-.89,4.61-3.78,6.73-5.17,2.53-1.67,6.03-3.75,11.48-3.51,9.03,.41,11.96,6.18,10.62,3.41-1.35-2.77-6.28-5.29-11.59-5.05-6.41,.29-10.13,2.86-12.29,4.41-2.78,2-5.81,5.78-5.75,6.18s8.13,.86,8.22,.52Z"/>
        <path class="cls-3" d="M300.88,173.27c7.1-1.27,12.2,4.28,12.56,4.07s-4.94-7.82-15.29-5.17c-3.38,.86-6.27,2.68-8.7,5.25-1.8,1.9-3.47,4.88-3,7.92,1.47,9.67,8.32,19.23,5.89,13.71-2.43-5.53-6.07-15.62-2.35-16.2,2.35-.37,.25-.6-.95-1.62,.06-.58,.81-2.63,1.2-2.96,3-2.55,5.35-4.04,10.63-4.98Z"/>
        <path class="cls-7" d="M264.96,234.03c.03,.47,16.11-.99,20.84-1.43,8.11-.75,16.86-2.03,17.06-2.6s-8.68-2.7-12.07-1.72-6.94,1.02-10.4,.56c-3.15-.41-15.46,4.72-15.44,5.19Z"/>
        <path class="cls-1" d="M276.13,238.23c-.21-.33,2.92-1.61,9.62-2,6.27-.36,9.69,.19,9.62,.62s-4.08,2.67-9.18,3.02c-5.1,.35-9.85-1.31-10.06-1.64Z"/>
      </g>
      <path class="cls-6" d="M243.74,165.11c-6.76,.78-9.82,3.35-11.22,5.62s-2.08,5.9-2.08,5.9c0-.07,2.9-6.65,13.74-8.72,8.8-1.68,12.73-.2,15.54,.49,2.39,.59,3.65-.51,3.42-1.95-.19-1.16-9.1-2.53-19.4-1.33Z"/>
      <path class="cls-6" d="M305.31,160.64c5.67-.07,9.29,1.16,10.31,3.59,.91,2.19,.45,2.44,.45,2.44-.98,.21-1.43-2.57-10.61-3.2-7.45-.51-9.09,1.24-11.33,2.19-1.9,.81-4.5,.02-4.48-1.32,.02-1.08,7.03-3.59,15.67-3.7Z"/>
    </g>
    <g>
      <path class="cls-8" d="M207.67,191.53s-6.14-9.59-10.55-9.21-7.29,3.65-7.29,12.28c0,3.69,2.41,14.12,5.76,18.42,5.37,6.91,10.75,12.28,18.61,10.17,4.14-1.11,1.15-12.47-2.3-17.85s-4.22-13.82-4.22-13.82Z"/>
      <path class="cls-2" d="M199.69,182.56c4.54,2.37,7.71,9.09,7.71,9.09,0,0-2.06-7.03-9.14-11.72l1.43,2.63Z"/>
      <path class="cls-6" d="M202.5,190.81c-1.34-1.34-.97,3.05-3.49,4.77-2.51,1.72-4.92,6.1-1.76,10.3,3.16,4.2,4.23,2.31,6.46,6.19,1.33,2.31,2.2,.4,.99-3.6-.62-2.03-.35-4.35-1.57-2.96-3.38,3.87-5.84-2.32-5.74-4.35,.1-2.03,4.7-.31,4.7-4.7s.41-5.65,.41-5.65Z"/>
      <path class="cls-5" d="M213.41,222.11c-.91,.53-4.26,1.41-5.49,.48-1.23-.93-6.05-2.47-10.66-9.74-4.61-7.27-4.57-10.58-4.88-14.24-.31-3.66,.66-11.81,3.65-11.22,2.99,.59,2.21-1.41,.77-2.41-1.44-1-2.85,.19-5.36,2.05,.66-2.38,1.92-6.88,9.75-3.16,0,0-.15-.68-.38-1.86l-3.69-.81s-9.95-1.87-8.09,15.59c1.87,17.46,13.17,25.05,16.49,27.06,4.98,3.01,10.01,.5,10.01,.5,0,0,3.84-5.69-2.12-2.25Z"/>
    </g>
    <polygon class="cls-8" points="200.39 218.96 224.04 220.33 224.5 232.61 201.75 235.79 200.39 218.96"/>
  </g>
  <path class="cls-8" d="M164.5,240.42l38.12-10.34,41.74,21.78c-5.66-6.39-7.52-3.15-15.8-12.07-4.08-4.4-10.83-8.09-13.97-9.83-.78-1.19-2.28-3.57-3.53-5.61,0,0-.44-.67-.6-.91,3.53-2.82,5.8-5.51,5.12-8.8-.71-3.41-3.63-4.33-9.29-5.39-1.51-4.33-4.78-9.06-9.74-11.83-3.35-1.87-8.84-4.1-15.99-4.1-3.37,0-6.68,.33-9.58,.96-12.94,2.8-19.61,11.92-23.97,19.56-3.58,6.26-6.02,17.3-6.26,24.51-1.39,1.5-3.68,4-6.04,8.61-3.88,7.57-5.42,11.76-6.81,17.18l36.62-23.72Z"/>
  <g>
    <path class="cls-6" d="M193.09,330.39c-1.49,0-2.89-.81-3.64-2.11-.46-.79-.62-1.66-.61-2.53-.48-.07-1-.14-1.56-.18h-.29c-.27-.03-.55-.05-.82-.07-.35-.01-.71-.02-1.09-.02-4.76,.01-7.58,1.99-9.27,3.17-1.08,.75-2.1,1.47-3.61,1.47h-.43l-.47-.1c-1.75-.37-3.07-1.84-3.3-3.65-.18-1.48,.41-3.2,1.56-4.85-13.88-5.86-25.19-17.64-30.39-32.06-5.77-16.02-5.47-30.36,.9-42.63,2.06-3.96,3.98-6.01,5.26-7.36q1.08-1.15,1.08-1.72c-.03-6.08,2.24-16.81,5.53-22.49,3.38-5.83,8.99-14.26,20.52-16.72,2.66-.57,5.64-.83,8.43-.83,5.33,0,9.95,1.45,13.49,3.4,5.2,2.86,7.63,8.27,8.11,11.32,4.53,.8,8.09,1.41,8.28,2.33,.3,1.42-2.89,3.92-6.39,6.4,.21,.7,1.48,2.71,2.55,4.29,0,0,3.44,5.5,4.14,6.38,2.5,1.36,8.38,4.48,12.3,8.64,10.89,11.57,15.1,23.56,18.17,32.31,2.12,6.04,4.04,12.62,4.95,15.83,6.37,2.51,25.06,9.94,28.94,12.05,4.08,2.23,7.81,4.52,8.57,8.07,.37,1.73-.03,3.49-1.14,4.96-1.13,1.5-3.37,3.3-7.62,3.3h0c-1.31,0-2.58-.17-3.61-.37-1.24,.79-3.03,1.54-5.58,1.9-.42,.06-.86,.09-1.31,.09-1.88,0-3.77-.52-5.2-1.06-.92,.47-2.04,.85-3.27,.85-1.1,0-2.16-.3-3.08-.88-.71-.44-2.1-1.51-4.71-3.52-2.66-2.05-7.62-5.88-8.78-6.46-.97-.42-1.9-.69-3.39-.69-.74,0-1.56,.07-2.52,.21-1.23,.38-5.22,2.95-7.87,4.66-2.2,1.42-4.45,2.87-6.49,4.05,.33,.44,.6,.93,.76,1.46,.46,1.53,.05,3.19-1.07,4.31-.64,.64-1.77,1.39-3.54,1.39-.62,0-1.22-.09-1.86-.19-.83-.12-1.86-.28-3.22-.28-1.52,0-3.19,.2-4.97,.58-2.13,.47-4,1.31-5.67,2.56-.32,.49-.74,.91-1.25,1.24-.16,.1-.32,.19-.49,.28-.34,.34-.64,.66-.92,.96-.95,1.02-2.13,2.29-4.12,2.29Z"/>
    <path class="cls-8" d="M273.22,304.08c-4.32-2.35-30.24-12.53-30.24-12.53,0,0-2.54-9.33-5.37-17.38-2.99-8.52-6.96-19.89-17.24-30.81-4.52-4.81-12.15-8.62-12.15-8.62,.21,.28-1.39-2.56-3.86-6.98-1.77-3.17-3-5.49-3-5.49,0,0-.92,.36-2.44,.81-3.09,.93-4.53,.71-4.53,.71,0,0,3.48-1.45,6.46-3.58,2.72-1.94,5.33-3.68,4.89-4.47-.3-.55-3.06-.72-5.21-.74-3.53-.04-7.27,.34-7.13,.32,0,0,2.06-1.09,3.48-1.5s2.69-.66,2.69-.66c0,0-1.09-5.11-6.81-8.26-4.69-2.58-12.36-3.18-19.09-1.75-9.89,2.11-14.88,8.97-17.99,14.33-2.71,4.67-4.99,14.6-4.96,20.35,.02,4.12-2.96,3.61-6.76,10.93-5.07,9.76-6.76,22.35-.68,39.22,5.14,14.27,17.62,27.34,34.43,31.76-4.62,2.29-5.95,5.93-5.39,6.05,.81,.17,4.71-4.59,12.79-4.62,.48,0,.94,0,1.39,.03,.27,.02,.54,.04,.81,.05,.11,0,.21,0,.31,.01,2.99,.23,4.99,.87,6.36,1.36-1.1,1.92-1.18,3.43-.82,3.43,.4,0,1.25-1.26,2.91-2.77,.16,0,.29-.02,.4-.09,.1-.07,.13-.18,.09-.33,1.79-1.52,4.39-3.19,8.14-4.01,7.69-1.68,10.71,.41,11.53-.41,.53-.53-2.05-2.19-5.56-2.89,1.49-.79,2.83-1.52,4.03-2.08,5.34-2.48,15.4-10.14,18.31-10.57,4.03-.6,6.18-.1,8.24,.78,2.06,.89,12.34,9.22,13.91,10.2s3.72-1.16,3.72-1.16c0,0,3.65,1.95,6.37,1.57,4.14-.58,5.05-2.32,5.05-2.32,0,0,6.67,2.21,9.02-.91,1.75-2.33-1.79-4.64-6.11-6.99Zm-96.35-82.79c-2.42,0-3.52-1.69-3.38-3.3s1.32-3.01,3.38-3.16c2.06-.15,3.45,1.76,3.45,3.16s-1.03,3.3-3.45,3.3Z"/>
    <path class="cls-6" d="M176.19,238.33c-4.25,0-9.08-2.19-14.77-5.6-.28-.17-.68-.3-.51-.58,.17-.28,.53-.13,.81,.03,9.92,5.95,17.77,5.92,21.95,1.05,5.17-6.04,7.06-10.45,6.99-11.64-.56-.05-2.13,.16-3.65,.37-2.92,.39-7.34,.99-12.41,1.04-13.18,.15-17.9-1.31-18.09-1.38-.31-.1-.52-.24-.42-.55,.1-.31,.93-.1,1.24,0,.05,.01,3.8,1.38,16.76,.95,4.99-.17,9.87-.85,12.76-1.24,3.41-.46,5.06-1.05,5.45-.36,.67,1.18-1.39,7.54-7.14,14.21-2.11,2.44-5.4,3.7-8.98,3.7Z"/>
    <path class="cls-6" d="M186.89,317.15c-1.43,0-3.78-1.03-4.58-1.4-3.34-1.55-20.23-10.48-24.11-34.17-2.13-12.97,.05-20.66,1.8-26.83,.42-1.5,.82-2.91,1.11-4.25,.39-1.81-.29-3.6-1.86-4.92-1.64-1.37-4.57-2.36-7.88-1-.3,.12-.73,.45-.86,.15-.12-.3,.24-.6,.41-1.25,.87-3.33,7.27-1.27,9.71,.77,1.89,1.58,3.01,3.8,2.53,6.02-.29,1.37-.78,3.54-1.2,5.06-1.72,6.06-4.13,13.3-2.05,26.01,3.2,19.52,15.22,29.34,20.35,32.39,3.96,2.35,6.65,2.69,7.1,2.53,.11-.4-1.11-2.32-2.17-3.61-4.06-4.98-13.41-15.19-15.77-35.04-1.19-9.98,4.89-25.36,11.68-32.15,7.31-7.32,20.26-8.06,22.66-7.54,1.27,.28,1.45,2,1.75,4.85,.46,4.4,1.23,11.77,6.53,19.39,7.36,10.57,15.46,15.64,15.55,15.69,.29,.16,1.24,.8,1.08,1.08-.16,.29-.5,.07-.79-.09-.09-.05-9.3-5.21-16.82-16.01-5.48-7.87-6.26-15.43-6.73-19.95-.18-1.74-.39-3.72-.82-3.81-2.27-.5-13.06,0-20.03,6.96-6.6,6.6-13.38,21.76-12.23,31.42,2.33,19.51,10.63,29.68,14.62,34.57,1.72,2.11,2.59,3.17,2.43,4.11-.04,.24-.18,.59-.61,.84-.2,.12-.47,.17-.79,.17Z"/>
  </g>
</svg>